<?xml version="1.0" encoding="UTF-8"?>
<svg id="Calque_1" data-name="Calque 1" xmlns="http://www.w3.org/2000/svg" viewBox="0 0 610 555">
  <defs>
    <style>
      .cls-1 {
        stroke-width: 0px;
      }
    </style>
  </defs>
  <g>
    <g>
      <path class="cls-1" d="M166.85,185.48c0,20.44-6.52,37.57-19.56,51.39-13.3,14.02-30.14,21.03-50.51,21.03s-37.05-7.08-50.41-21.23c-13.1-13.82-19.65-30.89-19.65-51.2s6.55-37.5,19.65-51.39c13.36-14.22,30.17-21.32,50.41-21.32s36.88,7.11,50.31,21.32c13.17,14.02,19.75,31.15,19.75,51.39ZM129.61,185.29c0-9.83-2.98-18.18-8.94-25.06-6.23-7.21-14.18-10.81-23.88-10.81s-17.07,3.73-23.49,11.2c-6.22,7.21-9.33,15.49-9.33,24.86,0,10.02,2.91,18.38,8.75,25.06,6.16,7.01,14.18,10.51,24.08,10.51,9.24,0,17.1-3.7,23.58-11.1,6.16-7.08,9.24-15.3,9.24-24.67Z"/>
      <path class="cls-1" d="M257.87,193.7c-.04-14.5,0-25.07,0-38.02v-42.91h36.22v144.98h-36.22l-51.62-94c.29,9.49,0,17.28,0,23.79v70.2h-36.11V112.76h42.06l45.67,80.93Z"/>
    </g>
    <path class="cls-1" d="M233.43,323.08h0c-7.6,4.39-17.1.06-19.12-8.49-2.11-8.93-7.15-14.58-14.81-14.58-10.45,0-14.34,8.81-12.5,17.2,5.74,27.25,62.48,17.21,56.33,56.54-2.66,16.59-20.9,28.27-39.54,28.27-15.09,0-25.05-2.88-33.67-10.97-5.7-5.35-4.33-14.79,2.44-18.7h0c7.02-4.06,16.08-.29,17.97,7.6,3.09,12.93,8.4,17.76,13.26,17.76,7.78,0,11.68-9.83,11.27-17.82-1.43-23.35-47.73-19.67-53.88-45.06-5.32-22.74,17.41-39.13,38.31-39.13s29.22,4.29,36.4,12.88c3.84,4.58,2.7,11.51-2.47,14.5Z"/>
    <path class="cls-1" d="M287.79,357.16c0,19.87,1.23,37.49,18.23,34.62v3.11c0,.96-.62,1.83-1.52,2.15-8.58,3.08-16.06,4.36-22.45,4.36-17.62,0-26.01-14.13-26.01-44.25v-41.79c0-6.56-2.25-15.36-7.99-15.36v-3.89c13.34-3.59,26.3-10.65,33.97-23.28.41-.67,1.13-1.1,1.91-1.1h1.59c1.25,0,2.26,1.01,2.26,2.26v4.91c0,10.45,3.48,16.8,12.29,16.8h5.94v4.3h-15.97c-1.25,0-2.26,1.01-2.26,2.26v54.89Z"/>
    <path class="cls-1" d="M353.76,300.01c-5.99-.15-12.68,6.03-14.69,19.42-1.06,7.04-8.71,10.94-14.87,7.37h0c-9.11-5.27-9.15-18.53.02-23.69,8.69-4.89,19.18-7.4,29.55-7.4,21.1-.2,40.76,10.44,40.76,42.61v41.79c0,10.24,2.05,14.34,7.99,18.64v2.66h-37.48c-1.25,0-2.26-1.01-2.26-2.26v-1.55c0-1.91-2.27-3.02-3.69-1.75-13.96,12.49-48.21,3.67-50.8-21.89-3.69-39.74,48.55-33.59,53.88-52.65,3.69-13.31-1.64-21.3-8.4-21.3ZM349.25,353.88c-14.95,37.28,12.08,45.68,13.52,28.47v-43.85c0-2.28-2.97-3.12-4.18-1.2-3.55,5.65-7.31,11.37-9.34,16.58Z"/>
    <path class="cls-1" d="M421.52,410.86c6.92-4,15.89-.36,17.8,7.41,3.22,13.06,12.67,16.96,20.56,14.68,10.45-2.87,14.75-13.52,10.04-21.92-8.81-15.36-31.75-10.04-47.32-11.68-21.95-2.46-20.83-28.15.61-35.3,1.81-.6,2.12-3.04.5-4.03-24.85-15.15-23.4-54.52,17.54-64.32,5.34-1.34,10.32-1.78,14.95-1.84.66,0,1.25-.29,1.67-.8,7.92-9.7,19.34-20.65,34.88-21.84,1.43-.11,2.56,1.22,2.32,2.64l-3.04,18.09c-.21,1.26-1.44,2.09-2.69,1.84-6.64-1.33-11.56-1.99-15.75-1.64-2.41.2-2.79,3.52-.54,4.39,36.46,14.13,27.36,75.67-32.08,69.02-.08,0-.17-.01-.25-.01-12.78.02-13.14,3.07,2.38,3.28,77.84,1.03,60.43,76.2,5.53,72.31-9.77-.67-19.8-3.96-28.26-10.21-6.95-5.14-6.31-15.75,1.17-20.07h0ZM460.29,359.21c17-4.1-1.43-62.68-17.82-58.59-16.39,3.89.41,62.68,17.82,58.59Z"/>
    <path class="cls-1" d="M566.19,338.52l-32.05,8.55c-1.02.27-1.73,1.22-1.69,2.27.69,18.82,6.1,36.86,19.2,41.62,10.64,3.94,22.97-1.59,31.19-17.12.56-1.06,1.83-1.54,2.93-1.05h0c1.17.53,1.69,1.94,1.11,3.09-8.91,17.58-23.3,25.74-37.69,25.74-65.14,0-63.5-105.9-4.51-105.9,11.52,0,21.98,5.02,29.92,13.3,9.36,9.76,4.65,26.03-8.41,29.52ZM532.26,339.99c-.05,1.51,1.4,2.64,2.86,2.24l10.59-2.89c23.56-6.15,8.81-39.33-1.03-39.33-6.06,0-11.74,19.19-12.43,39.98Z"/>
  </g>
  <path class="cls-1" d="M110.29,357.83c-3.44,0-6.72-1.99-8.2-5.33-10.17-22.97-16.34-47.35-18.34-72.48-.39-4.93,3.29-9.25,8.22-9.64,4.89-.41,9.25,3.29,9.64,8.22,1.84,23.11,7.52,45.53,16.87,66.65,2,4.52-.04,9.81-4.57,11.82-1.18.52-2.41.77-3.62.77Z"/>
  <path class="cls-1" d="M306.92,485.85c-65.63,0-127.73-28.66-170.37-78.62-3.21-3.76-2.76-9.42,1-12.63,3.76-3.21,9.42-2.76,12.63,1,39.23,45.97,96.36,72.34,156.74,72.34,34.76,0,69.11-8.82,99.34-25.49,4.33-2.39,9.78-.82,12.17,3.52,2.39,4.33.81,9.78-3.52,12.17-32.88,18.14-70.22,27.72-107.99,27.72Z"/>
  <path class="cls-1" d="M521.52,283.1c-.17,0-.34,0-.51-.01-4.94-.28-8.72-4.51-8.44-9.44.22-3.85.32-7.77.32-11.68,0-113.57-92.4-205.97-205.97-205.97-45.67,0-88.92,14.63-125.09,42.32-3.93,3-9.55,2.26-12.56-1.67-3.01-3.93-2.26-9.55,1.67-12.56,39.32-30.1,86.34-46.01,135.98-46.01,123.45,0,223.88,100.43,223.88,223.88,0,4.24-.12,8.5-.35,12.68-.27,4.77-4.22,8.46-8.94,8.46Z"/>
  <path class="cls-1" d="M450.96,266.7c-.17,0-.34,0-.51-.01-4.94-.28-8.72-4.51-8.44-9.44.14-2.44.21-4.92.21-7.38,0-60.38-40.94-112.4-99.55-126.51-4.81-1.16-7.77-6-6.61-10.81,1.15-4.81,6-7.78,10.8-6.61,66.69,16.06,113.27,75.24,113.27,143.93,0,2.79-.08,5.61-.23,8.38-.27,4.77-4.22,8.46-8.94,8.46Z"/>
</svg>